<svg id="Layer_1" data-name="Layer 1" xmlns="http://www.w3.org/2000/svg" viewBox="0 0 85.79 120.53"><defs><style>.cls-1{fill:#e41f21;fill-rule:evenodd;}</style></defs><title>Точка (лого) только пин</title><path class="cls-1" d="M98,53l-.22-2.41c0-.13,0-.26-.06-.4A29.18,29.18,0,0,0,96.43,44,42.91,42.91,0,0,0,60.66,13.18c-.41-.06-.84-.1-1.27-.14s-.87-.12-1.31-.15v0h0v0l-.49,0v0l-.49,0v0l-.66,0v0c-.46,0-.9,0-1.38,0h0a41.69,41.69,0,0,0-4.2.23h0l-.35,0h0q-1.32.15-2.51.37v0l-.28.07c-.58.11-1.11.24-1.62.38A42.93,42.93,0,0,0,15.89,38.47s-.42,1-.48,1.13-.29.69-.67,1.76a43.09,43.09,0,0,0-2,20.92c2,16.27,12,34.9,25.62,52.29l.69.88a220.47,220.47,0,0,0,14.77,16.79c.68.72.77.78,1,1.07l0,0,0,0q4.11-4.11,8-8.44l1.78-2c.81-1,2.09-2.42,2.52-2.91,18-21.23,31.1-45,30.8-64.28C98.07,54.77,98,53.86,98,53ZM42.57,54.84,41,77.33c-.24,5.1,3.18,8.06,6.63,12.42,2.08,2.64,4.78,4.62,4.75,7.5l-.61,17.9-.88-1L49.12,112l-1.71-2.11-1.67-2.12-3.22-4.28L41,101.36l-1.49-2.15L38,97.06l-1.39-2.15L35.3,92.76,34,90.63,32.79,88.5l-1.17-2.12-1.1-2.11-1-2.09-1-2.07-.91-2.05-.84-2L26,74l-.52-1.46-.18-.51-.62-1.93-.55-1.9-.48-1.86-.4-1.82-.33-1.77-.28-1.94-.06-.38,0-.32,0-.31,0-.31,0-.31,0-.32,0-.32,0-.31,0-.32,0-.32,0-.32V55.79l0-1.8.13-1.68.21-1.65L22.91,49l.37-1.59.44-1.56.52-1.53.59-1.49.66-1.46L26.21,40,27,38.61l.86-1.34L28.78,36l1-1.25,1-1.2,1.09-1.15L33,31.3l1.2-1,1.25-1,1.29-.92,1.34-.86,1.38-.79L40.91,26l1.46-.66,1.49-.59,1.53-.52,1.56-.44,1.59-.37,1.62-.29,1.65-.21,1.68-.13,1.7,0,1.7,0,1.68.13h.1l1.72.23,1.44.26,1.59.37,1.56.44,1.53.52,1.49.59,1.46.66,1.42.73,1.38.79,1.34.86,1.29.92,1.25,1,1.2,1,1.15,1.09,1.09,1.15,1,1.2,1,1.25.92,1.29.86,1.34L84.16,40l.73,1.42.66,1.46.59,1.49.52,1.53.44,1.56L87.46,49l.29,1.62L88,52.31,88.08,54l0,1.78,0,1.8L88,59.34l-.2,1.84-.29,1.9-.38,2-.47,2-.57,2.06-.66,2.11-.75,2.15-.84,2.19-.92,2.22-1,2.25-1.09,2.28-1.17,2.3-1.25,2.32-1.32,2.34-1.4,2.35L74.23,94l-1.53,2.36-1.6,2.37-1.66,2.37-1.72,2.36-1.77,2.36-1.83,2.35-1.88,2.34-1.92,2.32-1.71,2L58,97.25c0-2.88,2.67-4.86,4.75-7.5,1.23-1.55,2.45-2.93,3.51-4.29.26-.33.26-.33.36-.47,1.72-2.29,2.9-4.59,2.76-7.66L66.45,35.87a.94.94,0,0,0-.93-.94H65a.94.94,0,0,0-.93.94V37h0L62.91,65.79A1.33,1.33,0,0,1,61.73,67H61a1.31,1.31,0,0,1-1.18-1.21V35.87a.94.94,0,0,0-.94-.94h-.56a1,1,0,0,0-.94.94l-1,28.21v1.72a1.18,1.18,0,1,1-2.36,0V64.08l-1-28.21a1,1,0,0,0-.94-.94h-.56a.94.94,0,0,0-.94.94V65.79A1.31,1.31,0,0,1,49.34,67h-.7a1.33,1.33,0,0,1-1.18-1.21L46.35,37h0V35.87a.94.94,0,0,0-.93-.94h-.56a.94.94,0,0,0-.93.94L42.65,53.7M61.32,67.26h0Z" transform="translate(-12.29 -12.8)"/></svg>