<svg id="Layer_1" data-name="Layer 1" xmlns="http://www.w3.org/2000/svg" viewBox="0 0 301.85 120.53"><defs><style>.cls-1{fill:#1d1d1b;}.cls-2{fill:#e41f21;fill-rule:evenodd;}</style></defs><title>Точка (лого сокращенный)</title><path class="cls-1" d="M59.93,47.78a4.06,4.06,0,0,1-.66,2.5c-1.05.92-2.89.92-5.26.92-2.63,0-5.4-.13-7,1.45s-1.45,3.68-1.45,8.82V120c0,4.74.39,7.76-2.76,8q-5.13.2-9.87,0c-3.42-.13-2.89-3.29-2.89-7.24V60.15c0-4.47,0-6.19-1.19-7.5s-3.95-1.45-6.58-1.45a17,17,0,0,1-3-.13c-2.63-.13-3.55-.79-3.68-3.42s-.13-5.79,0-8.82a3.21,3.21,0,0,1,.79-2.24c1.05-.92,2.63-.66,5.66-.66H53.61c6.19,0,6.45,0,6.45,6.19C60.06,44.75,60.06,46.73,59.93,47.78Z" transform="translate(-15.48 -16.41)"/><path class="cls-1" d="M190.55,128.05c-2.24,0-3.95,0-5.14-.13-3.29-.26-2.89-3.16-2.89-6.71l-.13-21.32V94.63c0-2.76-.26-3.68-1.84-3.68-2.24,0-3.29,1.18-7.11,1.18-10.39,0-20.13-6.45-20.13-20.66V42.12c0-3.29.26-5.13.92-5.79s4.21-.92,7.23-.92a41.39,41.39,0,0,1,4.48.13c3.55.26,3,3.29,3,7.24V66.2c0,7.89.92,12.24,8,12.24,4.48,0,4.74-1.18,5.14-2.5a47.72,47.72,0,0,0,.39-7.9c0-4.74-.13-10.26-.13-14.21,0-5.13,0-9.08.13-11.71,0-3.29.27-5.13.93-5.79s4.08-.92,7.11-.92a41.28,41.28,0,0,1,4.47.13c3.55.26,3,3.29,3,6.71v78.56C198,127.79,197.65,128.05,190.55,128.05Z" transform="translate(-15.48 -16.41)"/><path class="cls-1" d="M256.17,127.79a42.26,42.26,0,0,1-6.71.26h-3.69c-3.55.26-6.05-1.32-7.37-5-.13-.52-1.05-3-2.89-7.76-3.16-8-5-12.76-5.53-13.95a15.49,15.49,0,0,0-2.24-4.08,1.91,1.91,0,0,0-2.76,0,8.24,8.24,0,0,0-1.58,5.39c0-.26,0,4.08-.13,12.9v8.81c-.26,2.63-1.05,3.42-3.55,3.69-2.5,0-5.13,0-7.63-.13-2.24,0-3-.92-3.16-3.29a41.09,41.09,0,0,1-.13-4.74V43.31c0-4.08-.26-7.11,2.89-7.24,2.89-.13,5.79-.13,8.81,0s2.77,3,2.77,6.19v5.26c0,4.08-.13,6.45.66,9.21a1.81,1.81,0,0,0,2.89.79,11.62,11.62,0,0,0,2.5-3.82c.79-1.45,1.84-3.55,3.16-6.19,1.58-2.89,2.5-5,3.16-6.32,1.58-2.76,2.24-5,4.6-5.13a69.88,69.88,0,0,1,12.9,0,1.37,1.37,0,0,1,1,2c-.39,1.05-1,2.37-1.71,3.68-1.71,3.55-6.06,12.11-12.77,25.53-1.32,2.5-1.84,3.55-1.71,3.16a6.58,6.58,0,0,0-.13,6.05c.92,2.11,2.1,4.74,3.42,8,4.74,11.71,9.74,24.22,15.13,37.37a18.49,18.49,0,0,1,1.19,3.55A2,2,0,0,1,256.17,127.79Z" transform="translate(-15.48 -16.41)"/><path class="cls-1" d="M316.41,127.26c-1.19,1.19-10.53.79-11.58.79a4.14,4.14,0,0,1-2.63-.92c-1.18-1.05-1.31-3-1.84-7.24-.26-2-.4-3.55-.66-4.61-.13-1.32-.4-7.63-5-7.76a6.11,6.11,0,0,0-1.05-.13c-6.84,0-7.9.26-8.68,7-.13,1.05-.79,4.61-1.85,10.66-.39,2-1.44,2.89-3.29,2.89q-6.12.2-10.27,0c-3.68-.13-2.76-2.89-2.24-6.71,3.16-17.9,12.5-72.9,13.69-80.14.79-4.34,1.84-5.13,6.05-5.13h12a6.37,6.37,0,0,1,2.89.79c.92.92,1.45,3.29,1.85,5.4,3.68,21.84,13,77,13.16,78C317.59,124,317.46,126.34,316.41,127.26ZM296.14,89c-.26-2.37-1.71-9.35-1.71-9.74a9.88,9.88,0,0,0-.79-2,1.52,1.52,0,0,0-2.77,0,47.31,47.31,0,0,0-2.1,12.11,8.61,8.61,0,0,0-.13,1.71c0,2,7.37,1.84,7.64.13A19.28,19.28,0,0,0,296.14,89Z" transform="translate(-15.48 -16.41)"/><path class="cls-2" d="M148.65,56.58l-.22-2.41c0-.13,0-.26-.06-.4a29.18,29.18,0,0,0-1.28-6.2A42.91,42.91,0,0,0,111.32,16.8c-.41-.06-.84-.1-1.27-.14s-.87-.12-1.31-.15v0h0v0l-.49,0v0l-.49,0v0l-.66,0v0c-.46,0-.9,0-1.38,0h0a41.69,41.69,0,0,0-4.2.23h0l-.35,0h0q-1.32.15-2.51.37v0l-.28.07c-.58.11-1.11.24-1.62.38A42.93,42.93,0,0,0,66.56,42.09s-.42,1-.48,1.13-.29.69-.67,1.76a43.09,43.09,0,0,0-2,20.92c2,16.27,12,34.9,25.62,52.29l.69.88a220.47,220.47,0,0,0,14.77,16.79c.68.72.77.78,1,1.07l0,0,0,0q4.11-4.11,8-8.44l1.78-2c.81-1,2.09-2.42,2.52-2.91,18-21.23,31.1-45,30.8-64.28C148.74,58.39,148.71,57.48,148.65,56.58ZM93.24,58.46l-1.6,22.49C91.41,86,94.83,89,98.27,93.36c2.08,2.64,4.78,4.62,4.75,7.5l-.61,17.9-.88-1-1.75-2.1-1.71-2.11L96.4,111.4l-3.22-4.28L91.64,105l-1.49-2.15-1.45-2.15-1.39-2.15L86,96.38l-1.28-2.14-1.23-2.13L82.29,90l-1.1-2.11-1-2.09-1-2.07-.91-2.05-.84-2-.77-2-.52-1.46L76,75.68l-.62-1.93-.55-1.9L74.31,70l-.4-1.82-.33-1.77-.28-1.94-.06-.38,0-.32,0-.31,0-.31,0-.31,0-.32,0-.32,0-.31,0-.32,0-.32,0-.32V59.4l0-1.8.13-1.68.21-1.65.29-1.62.37-1.59.44-1.56L74.9,48l.59-1.49L76.15,45l.73-1.42.79-1.38.86-1.34.92-1.29,1-1.25,1-1.2L82.56,36l1.15-1.09,1.2-1,1.25-1L87.44,32l1.34-.86,1.38-.79,1.42-.73L93,28.94l1.49-.59,1.53-.52,1.56-.44L99.2,27l1.62-.29,1.65-.21,1.68-.13,1.7,0,1.7,0,1.68.13h.1l1.72.23,1.44.26,1.59.37,1.56.44,1.53.52,1.49.59,1.46.66,1.42.73,1.38.79,1.34.86,1.29.92,1.25,1,1.2,1L129.14,36l1.09,1.15,1,1.2,1,1.25.92,1.29.86,1.34.79,1.38.73,1.42.66,1.46L136.8,48l.52,1.53.44,1.56.37,1.59.29,1.62.21,1.65.13,1.68,0,1.78,0,1.8-.11,1.78-.2,1.84-.29,1.9-.38,2-.47,2-.57,2.06-.66,2.11L135.36,77l-.84,2.19-.92,2.22-1,2.25-1.09,2.28-1.17,2.3-1.25,2.32-1.32,2.34-1.4,2.35-1.47,2.36L123.36,100l-1.6,2.37-1.66,2.37-1.72,2.36-1.77,2.36-1.83,2.35-1.88,2.34L111,116.42l-1.71,2-.6-17.56c0-2.88,2.67-4.86,4.75-7.5,1.23-1.55,2.45-2.93,3.51-4.29.26-.33.26-.33.36-.47,1.72-2.29,2.9-4.59,2.76-7.66l-2.94-41.46a.94.94,0,0,0-.93-.94h-.56a.94.94,0,0,0-.93.94v1.15h0l-1.11,28.77a1.33,1.33,0,0,1-1.18,1.21h-.7a1.31,1.31,0,0,1-1.18-1.21V39.48a.94.94,0,0,0-.94-.94H109a1,1,0,0,0-.94.94l-1,28.21v1.72a1.18,1.18,0,1,1-2.36,0V67.69l-1-28.21a1,1,0,0,0-.94-.94h-.56a.94.94,0,0,0-.94.94V69.41A1.31,1.31,0,0,1,100,70.62h-.7a1.33,1.33,0,0,1-1.18-1.21L97,40.64h0V39.48a.94.94,0,0,0-.93-.94h-.56a.94.94,0,0,0-.93.94L93.32,57.31M112,70.87h0Z" transform="translate(-15.48 -16.41)"/></svg>